<?xml version="1.0" standalone="no"?>
<!DOCTYPE svg PUBLIC "-//W3C//DTD SVG 20010904//EN"
 "http://www.w3.org/TR/2001/REC-SVG-20010904/DTD/svg10.dtd">
<svg version="1.0" xmlns="http://www.w3.org/2000/svg"
 width="400.000000pt" height="107.000000pt" viewBox="0 0 400.000000 107.000000"
 preserveAspectRatio="xMidYMid meet">
<metadata>
Created by potrace 1.15, written by Peter Selinger 2001-2017
</metadata>
<g transform="translate(0.000000,107.000000) scale(0.100000,-0.100000)"
fill="#000000" stroke="none">
<path d="M1281 946 c-8 -10 -11 -122 -9 -404 l3 -391 -33 -15 c-18 -9 -38 -16
-45 -16 -21 0 -77 -51 -77 -70 0 -9 8 -24 18 -33 17 -16 94 -17 899 -17 868 0
880 0 898 20 15 17 16 24 7 45 -7 15 -20 25 -32 25 -11 0 -20 4 -20 10 0 5
-19 14 -41 20 -86 23 -79 -15 -79 431 0 353 -2 398 -16 403 -9 3 -341 6 -739
6 -602 0 -724 -2 -734 -14z m1439 -401 l0 -355 -695 0 -695 0 0 355 0 355 695
0 695 0 0 -355z"/>
<path d="M1780 678 c28 -47 26 -112 -6 -176 -35 -70 -87 -101 -183 -109 -39
-3 -71 -10 -71 -14 0 -12 147 -11 189 1 39 11 82 49 112 97 16 25 20 50 20
105 0 69 -2 75 -31 101 -41 36 -54 34 -30 -5z"/>
<path d="M1571 583 c-13 -60 -25 -119 -28 -131 -5 -20 -2 -23 17 -20 18 2 26
15 40 63 10 33 21 83 26 110 l9 50 50 5 c46 5 48 6 28 18 -12 6 -44 12 -71 12
l-49 0 -22 -107z"/>
</g>
</svg>
